<svg xmlns="http://www.w3.org/2000/svg" xml:space="preserve" style="fill-rule:evenodd;clip-rule:evenodd;stroke-linejoin:round;stroke-miterlimit:2" viewBox="0 0 3957 827"><path d="M1086.96 1424.17c0 23.76-19.26 43.02-43.02 43.02H610.293c-23.758 0-43.018-19.26-43.018-43.02v-310.61c0-23.76-19.26-43.02-43.018-43.02h-25.952c-23.758 0-43.017-19.26-43.017-43.01V701.916a43.02 43.02 0 0 1 43.017-43.017h545.635c11.41 0 22.36 4.532 30.42 12.599a43.008 43.008 0 0 1 12.6 30.418v722.254Z" style="fill:#303030" transform="translate(-446.251 -649.658)"/><path d="M466.154 749.505c32.275.031 64.551.188 96.826-.006 6.773-.128 12.838-5.869 12.971-12.972.043-7.054.044-14.108 0-21.162-.129-6.816-5.975-12.919-13.144-12.965h-23.826v-6.25c8.028 0 16.057-.05 24.086.001 10.022.191 18.939 8.841 19.134 19.135.044 7.029.001 14.058.001 21.088-.061 10.134-8.759 19.312-19.376 19.376h-96.665l16.554 11.002-3.46 5.205-25.17-16.73c-1.227-.87-1.154-1.254-1.302-1.841-.316-1.261.012-2.449 1.302-3.364l25.17-16.73 3.46 5.205-16.561 11.008Z" style="fill:#fff"/><path d="M537.492 901.819V754.485h32.51v162.067c0 11.637.32 19.938.961 24.903.64 4.964 1.761 8.781 3.363 11.45 3.416 6.299 8.354 11.05 14.813 14.253 6.459 3.203 18.653 4.805 27.835 4.805 9.288 0 21.508-1.602 27.914-4.805 6.406-3.203 11.371-7.954 14.894-14.253 1.601-2.669 2.722-6.459 3.363-11.37.64-4.911.961-13.132.961-24.663V754.485h32.349v147.334c0 24.449-1.521 41.825-4.564 52.127-3.043 10.303-8.301 18.817-15.774 25.544-7.047 6.299-15.107 10.996-24.182 14.092-9.075 3.097-23.644 4.645-34.961 4.645-11.211 0-25.726-1.548-34.801-4.645-9.075-3.096-17.189-7.793-24.342-14.092-7.367-6.62-12.598-15.188-15.695-25.704-3.096-10.516-4.644-27.839-4.644-51.967Z" style="fill:#fff;fill-rule:nonzero" transform="matrix(.9147 0 0 .9147 -365.739 -577.796)"/><path d="M723.311 754.485h182.406v27.224h-74.788v211.873h-32.51V781.709h-75.108v-27.224Z" style="fill:#fff;fill-rule:nonzero" transform="matrix(.9147 0 0 .9147 -295.216 -577.796)"/><path d="M975.54 928.883h56.371v64.699H975.54z" style="fill:#fff;fill-rule:nonzero" transform="matrix(.9147 0 0 .9147 -672.579 -261.033)"/><path d="M1282.54 985.095c-8.22 4.377-16.66 7.66-25.3 9.849-8.65 2.188-17.83 3.283-27.55 3.283-30.64 0-54.42-10.837-71.34-32.51-16.93-21.673-25.39-52.154-25.39-91.443 0-39.076 8.52-69.53 25.55-91.364 17.03-21.833 40.75-32.749 71.18-32.749 9.72 0 18.9 1.094 27.55 3.283 8.64 2.188 17.08 5.471 25.3 9.849v33.15c-7.9-6.513-16.39-11.477-25.46-14.894-9.08-3.416-18.21-5.124-27.39-5.124-21.03 0-36.78 8.114-47.24 24.342-10.46 16.228-15.69 40.73-15.69 73.507 0 32.669 5.23 57.118 15.69 73.346 10.46 16.229 26.21 24.343 47.24 24.343 9.4 0 18.61-1.709 27.63-5.125s17.43-8.381 25.22-14.894v33.151Z" style="fill:#fff;fill-rule:nonzero" transform="matrix(.9147 0 0 .9147 -649.909 -265.281)"/><path d="M846.627 594.186V402.161h50.911v192.025c0 27.853 4.934 48.329 14.803 61.425 9.869 13.097 25.133 19.646 45.793 19.646 23.98 0 42.336-8.44 55.066-25.318 12.72-16.878 19.09-41.089 19.09-72.632V402.161h51.19v309.342h-51.19v-46.484c-9.04 17.893-21.35 31.451-36.941 40.674-15.587 9.223-33.803 13.834-54.647 13.834-31.727 0-55.338-10.376-70.833-31.128-15.495-20.751-23.242-52.156-23.242-94.213ZM1289.56 313.619v87.988h115.65v39.568h-115.65v168.229c0 22.873 4.33 38.829 13 47.868 8.67 9.038 23.8 13.558 45.38 13.558h57.27v40.673h-62.25c-38.19 0-65.12-7.655-80.8-22.965-15.68-15.31-23.52-41.689-23.52-79.134V441.175h-82.73v-39.568h82.73v-87.988h50.92ZM1554.3 599.719h97.396v111.784H1554.3z" style="fill:#676767;fill-rule:nonzero" transform="translate(3.4 -101.36)"/><path d="M2067.23 695.732c-13.65 7.932-27.72 13.881-42.2 17.847-14.48 3.965-29.28 5.948-44.41 5.948-47.96 0-85.45-14.388-112.47-43.164-27.02-28.776-40.54-68.619-40.54-119.531 0-50.911 13.52-90.755 40.54-119.531 27.02-28.776 64.51-43.164 112.47-43.164 14.95 0 29.52 1.937 43.72 5.81 14.21 3.874 28.5 9.869 42.89 17.985v53.402c-13.47-11.99-26.98-20.66-40.54-26.009-13.56-5.349-28.91-8.024-46.07-8.024-31.91 0-56.44 10.33-73.6 30.989-17.15 20.66-25.73 50.174-25.73 88.542 0 38.184 8.62 67.651 25.87 88.403 17.25 20.752 41.74 31.128 73.46 31.128 17.71 0 33.58-2.72 47.6-8.162 14.01-5.442 27.02-13.881 39.01-25.317v52.848ZM2271.1 437.301c-25.83 0-45.38 10.053-58.66 30.159-13.28 20.107-19.93 49.897-19.93 89.372 0 39.29 6.65 69.035 19.93 89.234 13.28 20.198 32.83 30.297 58.66 30.297 26.01 0 45.65-10.099 58.93-30.297 13.28-20.199 19.92-49.944 19.92-89.234 0-39.475-6.64-69.265-19.92-89.372-13.28-20.106-32.92-30.159-58.93-30.159Zm0-43.164c42.98 0 75.86 13.927 98.64 41.78 22.78 27.854 34.17 68.159 34.17 120.915 0 52.941-11.35 93.292-34.03 121.053-22.69 27.762-55.62 41.642-98.78 41.642-42.98 0-75.82-13.88-98.51-41.642-22.68-27.761-34.03-68.112-34.03-121.053 0-52.756 11.35-93.061 34.03-120.915 22.69-27.853 55.53-41.78 98.51-41.78ZM2665.05 441.175V280.969h50.91v430.534h-50.91V672.49c-8.48 15.31-19.78 26.977-33.89 35.001-14.11 8.024-30.39 12.036-48.84 12.036-37.45 0-66.91-14.526-88.4-43.579-21.49-29.052-32.24-69.127-32.24-120.223 0-50.358 10.79-89.879 32.37-118.562 21.59-28.684 51.01-43.026 88.27-43.026 18.63 0 35.05 4.012 49.25 12.036 14.21 8.024 25.36 19.691 33.48 35.002Zm-149.69 115.657c0 39.475 6.27 69.266 18.82 89.372 12.54 20.106 31.08 30.159 55.61 30.159s43.21-10.145 56.03-30.436 19.23-49.989 19.23-89.095c0-39.29-6.41-69.035-19.23-89.233-12.82-20.199-31.5-30.298-56.03-30.298s-43.07 10.053-55.61 30.159c-12.55 20.107-18.82 49.897-18.82 89.372ZM3064.54 531.1v24.902h-220.52v1.66c-1.48 42.242 6.59 72.586 24.21 91.032 17.61 18.446 42.47 27.669 74.57 27.669 16.23 0 33.2-2.582 50.91-7.747 17.7-5.165 36.61-13.005 56.72-23.519v50.635c-19.37 7.932-38.05 13.881-56.03 17.847-17.99 3.965-35.37 5.948-52.16 5.948-48.14 0-85.77-14.434-112.89-43.302-27.11-28.868-40.67-68.666-40.67-119.393 0-49.436 13.28-88.91 39.84-118.424 26.56-29.514 61.98-44.271 106.25-44.271 39.48 0 70.6 13.373 93.39 40.12 22.78 26.747 34.9 59.028 36.38 96.843Zm-50.91-14.942c-2.22-21.397-10.01-39.89-23.38-55.477-13.37-15.587-32.61-23.38-57.69-23.38-24.54 0-44.73 8.116-60.6 24.349-15.86 16.232-24.53 34.494-26.01 54.785l167.68-.277Z" style="fill:#00d372;fill-rule:nonzero" transform="translate(3.4 -101.36)"/><path d="M3318.21 253.854c-24.53 42.057-42.84 83.976-54.92 125.756-12.08 41.781-18.13 83.884-18.13 126.311 0 42.241 6.05 84.299 18.13 126.172 12.08 41.872 30.39 84.022 54.92 126.448h-44.27c-27.85-43.902-48.6-86.651-62.26-128.247-13.65-41.596-20.47-83.054-20.47-124.373 0-41.135 6.82-82.547 20.47-124.235 13.66-41.689 34.41-84.299 62.26-127.832h44.27ZM3504.92 253.854h44.28c27.85 43.533 48.6 86.143 62.25 127.832 13.65 41.688 20.48 83.1 20.48 124.235 0 41.504-6.83 83.1-20.48 124.788s-34.4 84.299-62.25 127.832h-44.28c24.54-42.795 42.84-85.129 54.93-127.002 12.08-41.873 18.12-83.746 18.12-125.618 0-42.058-6.04-84.023-18.12-125.896-12.09-41.872-30.39-83.93-54.93-126.171ZM3857.93 611.617h86.33v73.324l-54.51 105.696h-59.21l27.39-105.696v-73.324Zm-3.6-209.733h86.33v99.886h-86.33v-99.886Z" style="fill:#676767;fill-rule:nonzero" transform="translate(3.4 -101.36)"/></svg>